<?xml version="1.0" encoding="UTF-8"?>
<svg id="_레이어_2" data-name="레이어 2" xmlns="http://www.w3.org/2000/svg" viewBox="0 0 257.45 36.41">
  <defs>
    <style>
      .cls-1 {
        fill: #fff;
      }
    </style>
  </defs>
  <g id="Layer_1" data-name="Layer 1">
    <path class="cls-1" d="M193.85,1.87V34.53c0,.31-.12,.61-.35,.84l-.69,.69c-.22,.22-.52,.35-.84,.35h-.98c-.31,0-.61-.12-.84-.35l-.69-.69c-.22-.22-.35-.52-.35-.84v-2.85l-11.82-18.44v21.29c0,.31-.12,.61-.35,.84l-.69,.69c-.22,.22-.52,.35-.84,.35h-.98c-.31,0-.61-.12-.84-.35l-.69-.69c-.22-.22-.35-.52-.35-.84V1.87c0-.31,.12-.61,.35-.84l.69-.69c.22-.22,.52-.35,.84-.35h.98c.31,0,.61,.12,.84,.35l.69,.69c.22,.22,.35,.52,.35,.84v2.85l11.82,18.44V1.87c0-.31,.12-.61,.35-.84l.69-.69c.22-.22,.52-.35,.84-.35h.98c.31,0,.61,.12,.84,.35l.69,.69c.22,.22,.35,.52,.35,.84ZM21.28,10.84V1.88c0-.31-.12-.61-.35-.84l-.69-.69C20.02,.13,19.72,0,19.4,0h-.98c-.31,0-.61,.12-.84,.35l-.69,.69c-.22,.22-.35,.52-.35,.84v7.99l-6.69,6.69H4.73V1.88c0-.31-.12-.61-.35-.84l-.69-.69C3.47,.13,3.17,0,2.85,0h-.98C1.56,0,1.26,.13,1.04,.35L.35,1.04c-.22,.22-.35,.52-.35,.84V34.53c0,.31,.12,.61,.35,.84l.69,.69c.22,.22,.52,.35,.84,.35h.98c.31,0,.61-.12,.84-.35l.69-.69c.22-.22,.35-.52,.35-.84v-13.26h6.55l5.27,5.27v7.99c0,.31,.12,.61,.35,.84l.69,.69c.22,.22,.52,.35,.84,.35h.98c.31,0,.61-.12,.84-.35l.69-.69c.22-.22,.35-.52,.35-.84v-8.97c0-.63-.25-1.23-.69-1.67l-5.69-5.69,5.69-5.69c.44-.44,.69-1.04,.69-1.67Zm28.86,2.62l-5.44,5.44,5.44,5.44c.44,.44,.69,1.04,.69,1.67v8.51c0,.31-.12,.61-.35,.84l-.69,.69c-.22,.22-.52,.35-.84,.35h-.98c-.31,0-.61-.12-.84-.35l-.69-.69c-.22-.22-.35-.52-.35-.84v-7.53l-5.72-5.72h-6.1v13.26c0,.31-.12,.61-.35,.84l-.69,.69c-.22,.22-.52,.35-.84,.35h-.98c-.31,0-.61-.12-.84-.35l-.69-.69c-.22-.22-.35-.52-.35-.84V5.54c0-.63,.25-1.23,.69-1.67l3.17-3.18C33.85,.25,34.45,0,35.08,0h10.21c.63,0,1.23,.25,1.67,.69l3.17,3.18c.44,.44,.69,1.04,.69,1.67v6.25c0,.63-.25,1.23-.69,1.67Zm-15.86,3.09h6.08l5.74-5.74V4.73h-11.82v11.82ZM124.11,4.73v29.8c0,.31,.12,.61,.35,.84l.69,.69c.22,.22,.52,.35,.84,.35h.98c.31,0,.61-.12,.84-.35l.69-.69c.22-.22,.35-.52,.35-.84V4.73h7.11c.31,0,.61-.12,.84-.35l.69-.69c.22-.22,.35-.52,.35-.84v-.98c0-.31-.12-.61-.35-.84l-.69-.69c-.22-.22-.52-.35-.84-.35h-18.95c-.31,0-.61,.12-.84,.35l-.69,.69c-.22,.22-.35,.52-.35,.84v.98c0,.31,.12,.61,.35,.84l.69,.69c.22,.22,.52,.35,.84,.35h7.11Zm-43.74,.81v28.99c0,.31-.12,.61-.35,.84l-.69,.69c-.22,.22-.52,.35-.84,.35h-.98c-.31,0-.61-.12-.84-.35l-.69-.69c-.22-.22-.35-.52-.35-.84v-13.26h-11.82v13.26c0,.31-.12,.61-.35,.84l-.69,.69c-.22,.22-.52,.35-.84,.35h-.98c-.31,0-.61-.12-.84-.35l-.69-.69c-.22-.22-.35-.52-.35-.84V5.54c0-.63,.25-1.23,.69-1.67l3.17-3.18C63.4,.25,64.01,0,64.63,0h10.21c.63,0,1.23,.25,1.67,.69l3.17,3.18c.44,.44,.69,1.04,.69,1.67Zm-4.73-.81h-11.82v11.82h11.82V4.73Zm32.4,0c.31,0,.61-.12,.84-.35l.69-.69c.22-.22,.35-.52,.35-.84v-.98c0-.31-.12-.61-.35-.84l-.69-.69c-.22-.22-.52-.35-.84-.35h-13.87c-.63,0-1.23,.25-1.67,.69l-3.17,3.18c-.44,.44-.69,1.04-.69,1.67v28.99c0,.31,.12,.61,.35,.84l.69,.69c.22,.22,.52,.35,.84,.35h.98c.31,0,.61-.12,.84-.35l.69-.69c.22-.22,.35-.52,.35-.84v-13.26h11.84c.31,0,.61-.12,.84-.35l.69-.69c.22-.22,.35-.52,.35-.84v-.98c0-.31-.12-.61-.35-.84l-.69-.69c-.22-.22-.52-.35-.84-.35h-11.84V4.73h14.67Zm56.25,26.14c0,.63-.25,1.23-.69,1.67l-3.17,3.18c-.44,.44-1.05,.69-1.67,.69h-10.21c-.63,0-1.23-.25-1.67-.69l-3.17-3.18c-.44-.44-.69-1.04-.69-1.67V5.54c0-.63,.25-1.23,.69-1.67l3.17-3.18c.44-.44,1.05-.69,1.67-.69h10.21c.63,0,1.23,.25,1.67,.69l3.17,3.18c.44,.44,.69,1.04,.69,1.67V30.87Zm-4.73-26.14h-11.82V31.68h11.82V4.73Zm96,0c.31,0,.61-.12,.84-.35l.69-.69c.22-.22,.35-.52,.35-.84v-.98c0-.31-.12-.61-.35-.84l-.69-.69c-.22-.22-.52-.35-.84-.35h-12.33c-.31,0-.61,.12-.84,.35l-.69,.69c-.22,.22-.35,.52-.35,.84v.98c0,.31,.12,.61,.35,.84l.69,.69c.22,.22,.52,.35,.84,.35h3.8V31.68h-3.8c-.31,0-.61,.12-.84,.35l-.69,.69c-.22,.22-.35,.52-.35,.84v.98c0,.31,.12,.61,.35,.84l.69,.69c.22,.22,.52,.35,.84,.35h12.33c.31,0,.61-.12,.84-.35l.69-.69c.22-.22,.35-.52,.35-.84v-.98c0-.31-.12-.61-.35-.84l-.69-.69c-.22-.22-.52-.35-.84-.35h-3.8V4.73h3.8Zm-22.69-.86l-3.17-3.18c-.44-.45-1.05-.69-1.67-.69h-10.21c-.63,0-1.23,.25-1.67,.69l-3.17,3.18c-.44,.44-.69,1.04-.69,1.67v28.99c0,.31,.12,.61,.35,.84l.69,.69c.22,.22,.52,.35,.84,.35h.98c.31,0,.61-.12,.84-.35l.69-.69c.22-.22,.35-.52,.35-.84V4.73h11.82v29.8c0,.31,.12,.61,.35,.84l.69,.69c.22,.22,.52,.35,.84,.35h.98c.31,0,.61-.12,.84-.35l.69-.69c.22-.22,.35-.52,.35-.84V5.54c0-.63-.25-1.23-.69-1.67Zm-12.31,17.4h4.73v-4.73h-4.73v4.73Z"/>
  </g>
</svg>